<svg width="1200" height="630" viewBox="0 0 1200 630" fill="none" xmlns="http://www.w3.org/2000/svg">
  <defs>
    <linearGradient id="bg" x1="70" y1="40" x2="1130" y2="590" gradientUnits="userSpaceOnUse">
      <stop stop-color="#07111F"/>
      <stop offset="0.55" stop-color="#0C1729"/>
      <stop offset="1" stop-color="#030712"/>
    </linearGradient>
    <linearGradient id="accent" x1="150" y1="150" x2="470" y2="470" gradientUnits="userSpaceOnUse">
      <stop stop-color="#22D3EE"/>
      <stop offset="0.55" stop-color="#3B82F6"/>
      <stop offset="1" stop-color="#7DD3FC"/>
    </linearGradient>
    <linearGradient id="panel" x1="650" y1="160" x2="1080" y2="500" gradientUnits="userSpaceOnUse">
      <stop stop-color="#0F172A" stop-opacity="0.88"/>
      <stop offset="1" stop-color="#111827" stop-opacity="0.62"/>
    </linearGradient>
  </defs>
  <rect width="1200" height="630" rx="48" fill="url(#bg)"/>
  <circle cx="210" cy="142" r="118" fill="#22D3EE" fill-opacity="0.18"/>
  <circle cx="1012" cy="168" r="176" fill="#3B82F6" fill-opacity="0.16"/>
  <circle cx="960" cy="508" r="140" fill="#7DD3FC" fill-opacity="0.08"/>
  <rect x="72" y="72" width="1056" height="486" rx="36" fill="url(#panel)" stroke="#94A3B8" stroke-opacity="0.16"/>
  <rect x="108" y="116" width="160" height="160" rx="44" fill="url(#accent)" opacity="0.95"/>
  <path d="M186 151C162 151 145 168 145 192C145 215 162 232 186 232C210 232 227 215 227 192C227 168 210 151 186 151Z" fill="white" fill-opacity="0.18"/>
  <path d="M148 261C163 242 173 232 190 232C206 232 217 240 232 261" stroke="white" stroke-opacity="0.36" stroke-width="10" stroke-linecap="round"/>
  <text x="314" y="163" fill="#EAF2FF" font-size="24" font-family="Arial, Helvetica, sans-serif" letter-spacing="4">PORTFOLIO</text>
  <text x="314" y="238" fill="#EAF2FF" font-size="76" font-family="Arial, Helvetica, sans-serif" font-weight="700" letter-spacing="-2">Alekhya Atyam</text>
  <text x="314" y="300" fill="#9BADC8" font-size="30" font-family="Arial, Helvetica, sans-serif">Full Stack Developer</text>
  <text x="314" y="360" fill="#C7D8EE" font-size="24" font-family="Arial, Helvetica, sans-serif">Next.js . Laravel . C# . C++ . PostgreSQL</text>
  <text x="314" y="416" fill="#C7D8EE" font-size="22" font-family="Arial, Helvetica, sans-serif">Portfolio built for sharing on social media</text>
  <g transform="translate(314 454)">
    <rect width="158" height="44" rx="22" fill="#22D3EE"/>
    <text x="26" y="28" fill="#04111D" font-size="20" font-family="Arial, Helvetica, sans-serif">Resume ready</text>
  </g>
  <g transform="translate(488 454)">
    <rect width="148" height="44" rx="22" fill="#0F172A" fill-opacity="0.88"/>
    <text x="28" y="28" fill="#EAF2FF" font-size="20" font-family="Arial, Helvetica, sans-serif">Case studies</text>
  </g>
  <g transform="translate(650 454)">
    <rect width="220" height="44" rx="22" fill="#0F172A" fill-opacity="0.88"/>
    <text x="28" y="28" fill="#EAF2FF" font-size="20" font-family="Arial, Helvetica, sans-serif">Web apps and backend work</text>
  </g>
  <rect x="792" y="156" width="240" height="240" rx="48" fill="#0F172A" fill-opacity="0.22"/>
  <rect x="826" y="190" width="172" height="172" rx="86" fill="url(#accent)"/>
  <text x="869" y="292" fill="white" font-size="84" font-family="Arial, Helvetica, sans-serif" font-weight="700">AA</text>
</svg>
